<svg width="35" height="26" viewBox="0 0 35 26" fill="none" xmlns="http://www.w3.org/2000/svg">
<path d="M34.6514 6.00342C34.6514 6.00342 34.3096 3.59033 33.2568 2.53076C31.9238 1.13623 30.4336 1.12939 29.75 1.04736C24.8555 0.691894 17.5068 0.691895 17.5068 0.691895H17.4932C17.4932 0.691895 10.1445 0.691894 5.25 1.04736C4.56641 1.12939 3.07617 1.13623 1.74316 2.53076C0.69043 3.59033 0.355469 6.00342 0.355469 6.00342C0.355469 6.00342 0 8.84033 0 11.6704V14.3228C0 17.1528 0.348633 19.9897 0.348633 19.9897C0.348633 19.9897 0.69043 22.4028 1.73633 23.4624C3.06934 24.8569 4.81934 24.8091 5.59863 24.9595C8.40137 25.2261 17.5 25.3081 17.5 25.3081C17.5 25.3081 24.8555 25.2944 29.75 24.9458C30.4336 24.8638 31.9238 24.8569 33.2568 23.4624C34.3096 22.4028 34.6514 19.9897 34.6514 19.9897C34.6514 19.9897 35 17.1597 35 14.3228V11.6704C35 8.84033 34.6514 6.00342 34.6514 6.00342ZM13.8838 17.5425V7.70557L23.3379 12.6411L13.8838 17.5425Z" fill="#EEEFE9"/>
</svg>
